<svg width="24" height="24" viewBox="0 0 24 24" fill="none" xmlns="http://www.w3.org/2000/svg">
<path d="M4.96385 6.94872H7.30659V8.17271H7.34156C7.66791 7.70643 8.05837 7.34506 8.51293 7.0886C8.97915 6.83215 9.50947 6.70392 10.1039 6.70392C10.675 6.70392 11.1937 6.81466 11.6599 7.03615C12.1378 7.25763 12.4991 7.64814 12.7439 8.20768C13.0119 7.81134 13.3732 7.46163 13.8278 7.15854C14.294 6.85546 14.8418 6.70392 15.4712 6.70392C15.9491 6.70392 16.392 6.7622 16.7999 6.87877C17.2079 6.99535 17.5576 7.18186 17.8489 7.43831C18.1403 7.69477 18.3676 8.03283 18.5308 8.45248C18.694 8.86048 18.7755 9.3559 18.7755 9.93876V15.9888H16.2929V10.8655C16.2929 10.5624 16.2813 10.2768 16.258 10.0087C16.2347 9.74059 16.1706 9.50745 16.0657 9.30928C15.9608 9.11111 15.8034 8.95373 15.5936 8.83716C15.3955 8.72059 15.1216 8.66231 14.7719 8.66231C14.4222 8.66231 14.1367 8.73225 13.9152 8.87214C13.7054 9.00036 13.5364 9.17522 13.4082 9.3967C13.2917 9.60653 13.2101 9.85133 13.1635 10.1311C13.1285 10.3992 13.111 10.6732 13.111 10.9529V15.9888H10.6284V10.918C10.6284 10.6498 10.6226 10.3876 10.6109 10.1311C10.5993 9.86299 10.5468 9.61819 10.4536 9.3967C10.372 9.17522 10.2263 9.00036 10.0165 8.87214C9.81834 8.73225 9.52112 8.66231 9.12484 8.66231C9.00828 8.66231 8.85094 8.69145 8.65279 8.74974C8.46631 8.79636 8.27982 8.89545 8.09333 9.04699C7.9185 9.18688 7.76698 9.3967 7.63877 9.67647C7.51056 9.94459 7.44645 10.3001 7.44645 10.7431V15.9888H4.96385V6.94872Z" fill="white"/>
<path d="M0 3.50403H2.74486V15.9888H0V3.50403Z" fill="white"/>
<path d="M0.00844871 18.1879H18.7756V20.496H0.00844871V18.1879Z" fill="white"/>
<path d="M22.0435 5.47866H24V6.77757H22.0435V8.7681H20.593V6.77757H18.6364V5.47866H20.593V3.505H22.0435V5.47866Z" fill="white"/>
</svg>
