<svg width="32" height="32" viewBox="0 0 32 32" fill="none" xmlns="http://www.w3.org/2000/svg">
<path d="M10.3988 10.0156H13.0412V11.3951H13.0807C13.4488 10.8696 13.8892 10.4623 14.4019 10.1733C14.9277 9.88426 15.5259 9.73975 16.1964 9.73975C16.8405 9.73975 17.4255 9.86456 17.9514 10.1142C18.4904 10.3638 18.8979 10.8039 19.174 11.4345C19.4764 10.9879 19.8839 10.5937 20.3966 10.2521C20.9225 9.91054 21.5404 9.73975 22.2503 9.73975C22.7893 9.73975 23.2888 9.80544 23.7489 9.93682C24.2091 10.0682 24.6035 10.2784 24.9321 10.5674C25.2608 10.8565 25.5171 11.2375 25.7012 11.7104C25.8852 12.1703 25.9773 12.7286 25.9773 13.3855V20.2041H23.1771V14.43C23.1771 14.0884 23.1639 13.7665 23.1376 13.4644C23.1113 13.1622 23.039 12.8994 22.9207 12.6761C22.8024 12.4527 22.6249 12.2754 22.3883 12.144C22.1648 12.0126 21.8559 11.9469 21.4615 11.9469C21.0671 11.9469 20.745 12.0257 20.4952 12.1834C20.2586 12.3279 20.068 12.525 19.9233 12.7746C19.7919 13.0111 19.6999 13.287 19.6473 13.6023C19.6078 13.9045 19.5881 14.2132 19.5881 14.5285V20.2041H16.7879V14.4891C16.7879 14.1869 16.7814 13.8913 16.7682 13.6023C16.7551 13.3001 16.6959 13.0242 16.5907 12.7746C16.4987 12.525 16.3344 12.3279 16.0978 12.1834C15.8743 12.0257 15.539 11.9469 15.0921 11.9469C14.9606 11.9469 14.7831 11.9798 14.5596 12.0455C14.3493 12.098 14.1389 12.2097 13.9286 12.3805C13.7314 12.5381 13.5605 12.7746 13.4159 13.0899C13.2713 13.3921 13.199 13.7928 13.199 14.292V20.2041H10.3988V10.0156Z" fill="white"/>
<path d="M4.8 6.13336H7.89597V20.2041H4.8V6.13336Z" fill="white"/>
<path d="M4.80954 22.6826H25.9773V25.2839H4.80954V22.6826Z" fill="white"/>
<path d="M29.6632 8.35885H31.87V9.82276H29.6632V12.0662H28.0272V9.82276H25.8204V8.35885H28.0272V6.13446H29.6632V8.35885Z" fill="white"/>
</svg>
